<mxfile host="app.diagrams.net" agent="Mozilla/5.0 (Windows NT 10.0; Win64; x64) AppleWebKit/537.36 (KHTML, like Gecko) Chrome/131.0.0.0 Safari/537.36" version="25.0.3">
  <diagram name="Sayfa -1" id="JGmF4wiFgPKhv7ylqvii">
    <mxGraphModel dx="1062" dy="537" grid="1" gridSize="10" guides="1" tooltips="1" connect="1" arrows="1" fold="1" page="1" pageScale="1" pageWidth="827" pageHeight="1169" math="0" shadow="0">
      <root>
        <mxCell id="0" />
        <mxCell id="1" parent="0" />
        <mxCell id="aF_uGZAXSh6hio6pCL4w-3" value="" style="edgeStyle=orthogonalEdgeStyle;rounded=0;orthogonalLoop=1;jettySize=auto;html=1;" parent="1" source="aF_uGZAXSh6hio6pCL4w-1" edge="1">
          <mxGeometry relative="1" as="geometry">
            <mxPoint x="110" y="160" as="targetPoint" />
          </mxGeometry>
        </mxCell>
        <mxCell id="aF_uGZAXSh6hio6pCL4w-1" value="BAŞLA" style="ellipse;whiteSpace=wrap;html=1;" parent="1" vertex="1">
          <mxGeometry x="50" y="40" width="120" height="80" as="geometry" />
        </mxCell>
        <mxCell id="aF_uGZAXSh6hio6pCL4w-30" value="" style="edgeStyle=orthogonalEdgeStyle;rounded=0;orthogonalLoop=1;jettySize=auto;html=1;" parent="1" source="aF_uGZAXSh6hio6pCL4w-28" target="aF_uGZAXSh6hio6pCL4w-29" edge="1">
          <mxGeometry relative="1" as="geometry" />
        </mxCell>
        <mxCell id="aF_uGZAXSh6hio6pCL4w-28" value="1) Müşteri Ekleme&lt;div&gt;2) Araç Ekleme&lt;/div&gt;&lt;div&gt;3) Araç Kiralama&lt;/div&gt;&lt;div&gt;4) İade&lt;/div&gt;&lt;div&gt;5)Araç Aramave Filtreleme&lt;/div&gt;" style="shape=document;whiteSpace=wrap;html=1;boundedLbl=1;" parent="1" vertex="1">
          <mxGeometry x="40" y="160" width="160" height="130" as="geometry" />
        </mxCell>
        <mxCell id="aF_uGZAXSh6hio6pCL4w-32" value="" style="edgeStyle=orthogonalEdgeStyle;rounded=0;orthogonalLoop=1;jettySize=auto;html=1;" parent="1" source="aF_uGZAXSh6hio6pCL4w-29" target="aF_uGZAXSh6hio6pCL4w-31" edge="1">
          <mxGeometry relative="1" as="geometry" />
        </mxCell>
        <mxCell id="aF_uGZAXSh6hio6pCL4w-29" value="yapmak istediğiniz işlemi seçin (karar)" style="shape=parallelogram;perimeter=parallelogramPerimeter;whiteSpace=wrap;html=1;fixedSize=1;" parent="1" vertex="1">
          <mxGeometry x="60" y="320" width="120" height="60" as="geometry" />
        </mxCell>
        <mxCell id="aF_uGZAXSh6hio6pCL4w-34" value="" style="edgeStyle=orthogonalEdgeStyle;rounded=0;orthogonalLoop=1;jettySize=auto;html=1;" parent="1" source="aF_uGZAXSh6hio6pCL4w-31" target="aF_uGZAXSh6hio6pCL4w-33" edge="1">
          <mxGeometry relative="1" as="geometry" />
        </mxCell>
        <mxCell id="aF_uGZAXSh6hio6pCL4w-35" value="1" style="edgeLabel;html=1;align=center;verticalAlign=middle;resizable=0;points=[];" parent="aF_uGZAXSh6hio6pCL4w-34" vertex="1" connectable="0">
          <mxGeometry x="0.32" y="2" relative="1" as="geometry">
            <mxPoint as="offset" />
          </mxGeometry>
        </mxCell>
        <mxCell id="aF_uGZAXSh6hio6pCL4w-31" value="karar?" style="rhombus;whiteSpace=wrap;html=1;" parent="1" vertex="1">
          <mxGeometry x="80" y="410" width="80" height="80" as="geometry" />
        </mxCell>
        <mxCell id="aF_uGZAXSh6hio6pCL4w-37" value="" style="edgeStyle=orthogonalEdgeStyle;rounded=0;orthogonalLoop=1;jettySize=auto;html=1;" parent="1" source="aF_uGZAXSh6hio6pCL4w-33" target="aF_uGZAXSh6hio6pCL4w-36" edge="1">
          <mxGeometry relative="1" as="geometry" />
        </mxCell>
        <mxCell id="aF_uGZAXSh6hio6pCL4w-33" value="1) Müşteri ekleme&lt;div&gt;2) Bilgileri güncelleme&lt;/div&gt;" style="shape=document;whiteSpace=wrap;html=1;boundedLbl=1;" parent="1" vertex="1">
          <mxGeometry x="200" y="401.25" width="110" height="97.5" as="geometry" />
        </mxCell>
        <mxCell id="aF_uGZAXSh6hio6pCL4w-39" value="" style="edgeStyle=orthogonalEdgeStyle;rounded=0;orthogonalLoop=1;jettySize=auto;html=1;" parent="1" source="aF_uGZAXSh6hio6pCL4w-36" target="aF_uGZAXSh6hio6pCL4w-38" edge="1">
          <mxGeometry relative="1" as="geometry" />
        </mxCell>
        <mxCell id="aF_uGZAXSh6hio6pCL4w-36" value="yapmak istediğiniz işlemi seçin (karar)" style="shape=parallelogram;perimeter=parallelogramPerimeter;whiteSpace=wrap;html=1;fixedSize=1;" parent="1" vertex="1">
          <mxGeometry x="330" y="420" width="120" height="60" as="geometry" />
        </mxCell>
        <mxCell id="aF_uGZAXSh6hio6pCL4w-41" value="" style="edgeStyle=orthogonalEdgeStyle;rounded=0;orthogonalLoop=1;jettySize=auto;html=1;" parent="1" source="aF_uGZAXSh6hio6pCL4w-38" target="aF_uGZAXSh6hio6pCL4w-40" edge="1">
          <mxGeometry relative="1" as="geometry" />
        </mxCell>
        <mxCell id="KJzKK7GFQL38OleqfvDz-1" value="1" style="edgeLabel;html=1;align=center;verticalAlign=middle;resizable=0;points=[];" vertex="1" connectable="0" parent="aF_uGZAXSh6hio6pCL4w-41">
          <mxGeometry x="0.0444" y="-3" relative="1" as="geometry">
            <mxPoint as="offset" />
          </mxGeometry>
        </mxCell>
        <mxCell id="KJzKK7GFQL38OleqfvDz-18" value="" style="edgeStyle=orthogonalEdgeStyle;rounded=0;orthogonalLoop=1;jettySize=auto;html=1;" edge="1" parent="1" source="aF_uGZAXSh6hio6pCL4w-38">
          <mxGeometry relative="1" as="geometry">
            <mxPoint x="460" y="350" as="targetPoint" />
          </mxGeometry>
        </mxCell>
        <mxCell id="aF_uGZAXSh6hio6pCL4w-38" value="karar?" style="rhombus;whiteSpace=wrap;html=1;" parent="1" vertex="1">
          <mxGeometry x="350" y="310" width="80" height="80" as="geometry" />
        </mxCell>
        <mxCell id="KJzKK7GFQL38OleqfvDz-3" value="" style="edgeStyle=orthogonalEdgeStyle;rounded=0;orthogonalLoop=1;jettySize=auto;html=1;" edge="1" parent="1" source="aF_uGZAXSh6hio6pCL4w-40" target="KJzKK7GFQL38OleqfvDz-2">
          <mxGeometry relative="1" as="geometry" />
        </mxCell>
        <mxCell id="aF_uGZAXSh6hio6pCL4w-40" value="isminizi giriniz(isim)" style="shape=parallelogram;perimeter=parallelogramPerimeter;whiteSpace=wrap;html=1;fixedSize=1;" parent="1" vertex="1">
          <mxGeometry x="220" y="325" width="100" height="50" as="geometry" />
        </mxCell>
        <mxCell id="KJzKK7GFQL38OleqfvDz-5" value="" style="edgeStyle=orthogonalEdgeStyle;rounded=0;orthogonalLoop=1;jettySize=auto;html=1;" edge="1" parent="1" source="KJzKK7GFQL38OleqfvDz-2" target="KJzKK7GFQL38OleqfvDz-4">
          <mxGeometry relative="1" as="geometry" />
        </mxCell>
        <mxCell id="KJzKK7GFQL38OleqfvDz-2" value="şifrenizi giriniz(sifre)" style="shape=parallelogram;perimeter=parallelogramPerimeter;whiteSpace=wrap;html=1;fixedSize=1;" vertex="1" parent="1">
          <mxGeometry x="220" y="250" width="100" height="50" as="geometry" />
        </mxCell>
        <mxCell id="KJzKK7GFQL38OleqfvDz-7" value="" style="edgeStyle=orthogonalEdgeStyle;rounded=0;orthogonalLoop=1;jettySize=auto;html=1;" edge="1" parent="1" source="KJzKK7GFQL38OleqfvDz-4" target="KJzKK7GFQL38OleqfvDz-6">
          <mxGeometry relative="1" as="geometry" />
        </mxCell>
        <mxCell id="KJzKK7GFQL38OleqfvDz-4" value="telefon numaranızı giriniz giriniz(telNo)" style="shape=parallelogram;perimeter=parallelogramPerimeter;whiteSpace=wrap;html=1;fixedSize=1;" vertex="1" parent="1">
          <mxGeometry x="220" y="180" width="100" height="50" as="geometry" />
        </mxCell>
        <mxCell id="KJzKK7GFQL38OleqfvDz-9" value="" style="edgeStyle=orthogonalEdgeStyle;rounded=0;orthogonalLoop=1;jettySize=auto;html=1;" edge="1" parent="1" source="KJzKK7GFQL38OleqfvDz-6" target="KJzKK7GFQL38OleqfvDz-8">
          <mxGeometry relative="1" as="geometry" />
        </mxCell>
        <mxCell id="KJzKK7GFQL38OleqfvDz-6" value="&amp;nbsp;epost adresinizi giriniz(eposta)" style="shape=parallelogram;perimeter=parallelogramPerimeter;whiteSpace=wrap;html=1;fixedSize=1;" vertex="1" parent="1">
          <mxGeometry x="220" y="110" width="100" height="50" as="geometry" />
        </mxCell>
        <mxCell id="KJzKK7GFQL38OleqfvDz-11" value="" style="edgeStyle=orthogonalEdgeStyle;rounded=0;orthogonalLoop=1;jettySize=auto;html=1;" edge="1" parent="1" source="KJzKK7GFQL38OleqfvDz-8" target="KJzKK7GFQL38OleqfvDz-10">
          <mxGeometry relative="1" as="geometry" />
        </mxCell>
        <mxCell id="KJzKK7GFQL38OleqfvDz-8" value="&amp;nbsp;adresinizi giriniz(adresinizi)" style="shape=parallelogram;perimeter=parallelogramPerimeter;whiteSpace=wrap;html=1;fixedSize=1;" vertex="1" parent="1">
          <mxGeometry x="220" y="50" width="100" height="50" as="geometry" />
        </mxCell>
        <mxCell id="KJzKK7GFQL38OleqfvDz-10" value="başka işlem yapmak istiyor musunuz?" style="rhombus;whiteSpace=wrap;html=1;" vertex="1" parent="1">
          <mxGeometry x="404" y="50" width="80" height="80" as="geometry" />
        </mxCell>
        <mxCell id="KJzKK7GFQL38OleqfvDz-12" value="" style="endArrow=classic;html=1;rounded=0;entryX=0.5;entryY=0;entryDx=0;entryDy=0;exitX=0.5;exitY=0;exitDx=0;exitDy=0;" edge="1" parent="1" source="KJzKK7GFQL38OleqfvDz-10" target="aF_uGZAXSh6hio6pCL4w-1">
          <mxGeometry width="50" height="50" relative="1" as="geometry">
            <mxPoint x="370" y="50" as="sourcePoint" />
            <mxPoint x="470" y="270" as="targetPoint" />
            <Array as="points">
              <mxPoint x="444" y="20" />
              <mxPoint x="110" y="20" />
            </Array>
          </mxGeometry>
        </mxCell>
        <mxCell id="KJzKK7GFQL38OleqfvDz-13" value="EVET" style="edgeLabel;html=1;align=center;verticalAlign=middle;resizable=0;points=[];" vertex="1" connectable="0" parent="KJzKK7GFQL38OleqfvDz-12">
          <mxGeometry x="-0.2222" y="-1" relative="1" as="geometry">
            <mxPoint as="offset" />
          </mxGeometry>
        </mxCell>
        <mxCell id="KJzKK7GFQL38OleqfvDz-44" value="" style="edgeStyle=orthogonalEdgeStyle;rounded=0;orthogonalLoop=1;jettySize=auto;html=1;" edge="1" parent="1" source="KJzKK7GFQL38OleqfvDz-15" target="KJzKK7GFQL38OleqfvDz-43">
          <mxGeometry relative="1" as="geometry" />
        </mxCell>
        <mxCell id="KJzKK7GFQL38OleqfvDz-15" value="Araç seçiniz" style="shape=document;whiteSpace=wrap;html=1;boundedLbl=1;" vertex="1" parent="1">
          <mxGeometry x="200" y="670" width="120" height="80" as="geometry" />
        </mxCell>
        <mxCell id="KJzKK7GFQL38OleqfvDz-63" value="" style="edgeStyle=orthogonalEdgeStyle;rounded=0;orthogonalLoop=1;jettySize=auto;html=1;" edge="1" parent="1" source="KJzKK7GFQL38OleqfvDz-16" target="KJzKK7GFQL38OleqfvDz-62">
          <mxGeometry relative="1" as="geometry" />
        </mxCell>
        <mxCell id="KJzKK7GFQL38OleqfvDz-16" value="İade etmek istediğiniz aracı seçiniz" style="shape=document;whiteSpace=wrap;html=1;boundedLbl=1;" vertex="1" parent="1">
          <mxGeometry x="210" y="790" width="120" height="80" as="geometry" />
        </mxCell>
        <mxCell id="KJzKK7GFQL38OleqfvDz-21" value="" style="edgeStyle=orthogonalEdgeStyle;rounded=0;orthogonalLoop=1;jettySize=auto;html=1;" edge="1" parent="1" source="KJzKK7GFQL38OleqfvDz-19" target="KJzKK7GFQL38OleqfvDz-20">
          <mxGeometry relative="1" as="geometry" />
        </mxCell>
        <mxCell id="KJzKK7GFQL38OleqfvDz-19" value="isminizi giriniz(isim)" style="shape=parallelogram;perimeter=parallelogramPerimeter;whiteSpace=wrap;html=1;fixedSize=1;" vertex="1" parent="1">
          <mxGeometry x="450" y="325" width="100" height="50" as="geometry" />
        </mxCell>
        <mxCell id="KJzKK7GFQL38OleqfvDz-24" value="" style="edgeStyle=orthogonalEdgeStyle;rounded=0;orthogonalLoop=1;jettySize=auto;html=1;" edge="1" parent="1" source="KJzKK7GFQL38OleqfvDz-20" target="KJzKK7GFQL38OleqfvDz-23">
          <mxGeometry relative="1" as="geometry" />
        </mxCell>
        <mxCell id="KJzKK7GFQL38OleqfvDz-25" value="1" style="edgeLabel;html=1;align=center;verticalAlign=middle;resizable=0;points=[];" vertex="1" connectable="0" parent="KJzKK7GFQL38OleqfvDz-24">
          <mxGeometry x="-0.3524" relative="1" as="geometry">
            <mxPoint as="offset" />
          </mxGeometry>
        </mxCell>
        <mxCell id="KJzKK7GFQL38OleqfvDz-29" value="" style="edgeStyle=orthogonalEdgeStyle;rounded=0;orthogonalLoop=1;jettySize=auto;html=1;" edge="1" parent="1" source="KJzKK7GFQL38OleqfvDz-20" target="KJzKK7GFQL38OleqfvDz-28">
          <mxGeometry relative="1" as="geometry" />
        </mxCell>
        <mxCell id="KJzKK7GFQL38OleqfvDz-20" value="Hangi bilgiyi güncellemek istiyorsunuz?&lt;div&gt;1) adres&lt;/div&gt;&lt;div&gt;2)eposta&lt;/div&gt;" style="rhombus;whiteSpace=wrap;html=1;" vertex="1" parent="1">
          <mxGeometry x="460" y="230" width="80" height="80" as="geometry" />
        </mxCell>
        <mxCell id="KJzKK7GFQL38OleqfvDz-23" value="yeni adresi girin(adres)" style="shape=parallelogram;perimeter=parallelogramPerimeter;whiteSpace=wrap;html=1;fixedSize=1;" vertex="1" parent="1">
          <mxGeometry x="600" y="240" width="120" height="60" as="geometry" />
        </mxCell>
        <mxCell id="KJzKK7GFQL38OleqfvDz-26" value="" style="endArrow=classic;html=1;rounded=0;exitX=1;exitY=0.5;exitDx=0;exitDy=0;entryX=1;entryY=0.5;entryDx=0;entryDy=0;" edge="1" parent="1" source="KJzKK7GFQL38OleqfvDz-23" target="KJzKK7GFQL38OleqfvDz-10">
          <mxGeometry width="50" height="50" relative="1" as="geometry">
            <mxPoint x="420" y="320" as="sourcePoint" />
            <mxPoint x="470" y="270" as="targetPoint" />
            <Array as="points">
              <mxPoint x="810" y="270" />
              <mxPoint x="810" y="90" />
            </Array>
          </mxGeometry>
        </mxCell>
        <mxCell id="KJzKK7GFQL38OleqfvDz-30" value="" style="edgeStyle=orthogonalEdgeStyle;rounded=0;orthogonalLoop=1;jettySize=auto;html=1;" edge="1" parent="1" source="KJzKK7GFQL38OleqfvDz-28" target="KJzKK7GFQL38OleqfvDz-10">
          <mxGeometry relative="1" as="geometry" />
        </mxCell>
        <mxCell id="KJzKK7GFQL38OleqfvDz-28" value="yeni e posta giriniz(eposta)" style="shape=parallelogram;perimeter=parallelogramPerimeter;whiteSpace=wrap;html=1;fixedSize=1;" vertex="1" parent="1">
          <mxGeometry x="450" y="160" width="96" height="40" as="geometry" />
        </mxCell>
        <mxCell id="KJzKK7GFQL38OleqfvDz-36" value="" style="edgeStyle=orthogonalEdgeStyle;rounded=0;orthogonalLoop=1;jettySize=auto;html=1;" edge="1" parent="1" source="KJzKK7GFQL38OleqfvDz-31" target="KJzKK7GFQL38OleqfvDz-35">
          <mxGeometry relative="1" as="geometry" />
        </mxCell>
        <mxCell id="KJzKK7GFQL38OleqfvDz-31" value="Araç ismi giriniz&lt;div&gt;(arac)&lt;/div&gt;" style="shape=parallelogram;perimeter=parallelogramPerimeter;whiteSpace=wrap;html=1;fixedSize=1;" vertex="1" parent="1">
          <mxGeometry x="200" y="540" width="120" height="60" as="geometry" />
        </mxCell>
        <mxCell id="KJzKK7GFQL38OleqfvDz-33" value="" style="endArrow=classic;html=1;rounded=0;exitX=0.5;exitY=1;exitDx=0;exitDy=0;entryX=0;entryY=0.5;entryDx=0;entryDy=0;" edge="1" parent="1" source="aF_uGZAXSh6hio6pCL4w-31" target="KJzKK7GFQL38OleqfvDz-31">
          <mxGeometry width="50" height="50" relative="1" as="geometry">
            <mxPoint x="420" y="620" as="sourcePoint" />
            <mxPoint x="470" y="570" as="targetPoint" />
            <Array as="points">
              <mxPoint x="120" y="570" />
            </Array>
          </mxGeometry>
        </mxCell>
        <mxCell id="KJzKK7GFQL38OleqfvDz-34" value="2" style="edgeLabel;html=1;align=center;verticalAlign=middle;resizable=0;points=[];" vertex="1" connectable="0" parent="KJzKK7GFQL38OleqfvDz-33">
          <mxGeometry x="0.5522" y="-1" relative="1" as="geometry">
            <mxPoint as="offset" />
          </mxGeometry>
        </mxCell>
        <mxCell id="KJzKK7GFQL38OleqfvDz-38" value="" style="edgeStyle=orthogonalEdgeStyle;rounded=0;orthogonalLoop=1;jettySize=auto;html=1;" edge="1" parent="1" source="KJzKK7GFQL38OleqfvDz-35" target="KJzKK7GFQL38OleqfvDz-37">
          <mxGeometry relative="1" as="geometry" />
        </mxCell>
        <mxCell id="KJzKK7GFQL38OleqfvDz-35" value="aracın model yılını giriniz(modelYılı)" style="shape=parallelogram;perimeter=parallelogramPerimeter;whiteSpace=wrap;html=1;fixedSize=1;" vertex="1" parent="1">
          <mxGeometry x="330" y="540" width="120" height="60" as="geometry" />
        </mxCell>
        <mxCell id="KJzKK7GFQL38OleqfvDz-40" value="" style="edgeStyle=orthogonalEdgeStyle;rounded=0;orthogonalLoop=1;jettySize=auto;html=1;" edge="1" parent="1" source="KJzKK7GFQL38OleqfvDz-37" target="KJzKK7GFQL38OleqfvDz-39">
          <mxGeometry relative="1" as="geometry" />
        </mxCell>
        <mxCell id="KJzKK7GFQL38OleqfvDz-37" value="aracın plakasını giriniz(plaka)" style="shape=parallelogram;perimeter=parallelogramPerimeter;whiteSpace=wrap;html=1;fixedSize=1;" vertex="1" parent="1">
          <mxGeometry x="460" y="540" width="120" height="60" as="geometry" />
        </mxCell>
        <mxCell id="KJzKK7GFQL38OleqfvDz-39" value="aracın kilometre bilgisini giriniz(km)" style="shape=parallelogram;perimeter=parallelogramPerimeter;whiteSpace=wrap;html=1;fixedSize=1;" vertex="1" parent="1">
          <mxGeometry x="600" y="540" width="120" height="60" as="geometry" />
        </mxCell>
        <mxCell id="KJzKK7GFQL38OleqfvDz-41" value="" style="endArrow=classic;html=1;rounded=0;exitX=0.913;exitY=0.59;exitDx=0;exitDy=0;exitPerimeter=0;entryX=1;entryY=0;entryDx=0;entryDy=0;" edge="1" parent="1" source="KJzKK7GFQL38OleqfvDz-39" target="KJzKK7GFQL38OleqfvDz-10">
          <mxGeometry width="50" height="50" relative="1" as="geometry">
            <mxPoint x="740" y="590" as="sourcePoint" />
            <mxPoint x="490" y="30" as="targetPoint" />
            <Array as="points">
              <mxPoint x="860" y="575" />
              <mxPoint x="860" y="30" />
              <mxPoint x="510" y="30" />
            </Array>
          </mxGeometry>
        </mxCell>
        <mxCell id="KJzKK7GFQL38OleqfvDz-42" value="" style="endArrow=classic;html=1;rounded=0;entryX=0;entryY=0.5;entryDx=0;entryDy=0;" edge="1" parent="1" target="KJzKK7GFQL38OleqfvDz-15">
          <mxGeometry width="50" height="50" relative="1" as="geometry">
            <mxPoint x="120" y="570" as="sourcePoint" />
            <mxPoint x="550" y="710" as="targetPoint" />
            <Array as="points">
              <mxPoint x="120" y="710" />
            </Array>
          </mxGeometry>
        </mxCell>
        <mxCell id="KJzKK7GFQL38OleqfvDz-45" value="3" style="edgeLabel;html=1;align=center;verticalAlign=middle;resizable=0;points=[];" vertex="1" connectable="0" parent="KJzKK7GFQL38OleqfvDz-42">
          <mxGeometry x="0.5359" y="1" relative="1" as="geometry">
            <mxPoint x="21" y="1" as="offset" />
          </mxGeometry>
        </mxCell>
        <mxCell id="KJzKK7GFQL38OleqfvDz-47" value="" style="edgeStyle=orthogonalEdgeStyle;rounded=0;orthogonalLoop=1;jettySize=auto;html=1;" edge="1" parent="1" source="KJzKK7GFQL38OleqfvDz-43">
          <mxGeometry relative="1" as="geometry">
            <mxPoint x="519.9999999999998" y="710.0000000000005" as="targetPoint" />
          </mxGeometry>
        </mxCell>
        <mxCell id="KJzKK7GFQL38OleqfvDz-43" value="foreach(string i in arac){ Console.WriteLine(i); }" style="shape=parallelogram;perimeter=parallelogramPerimeter;whiteSpace=wrap;html=1;fixedSize=1;" vertex="1" parent="1">
          <mxGeometry x="340" y="680" width="160" height="60" as="geometry" />
        </mxCell>
        <mxCell id="KJzKK7GFQL38OleqfvDz-52" value="" style="edgeStyle=orthogonalEdgeStyle;rounded=0;orthogonalLoop=1;jettySize=auto;html=1;" edge="1" parent="1" source="KJzKK7GFQL38OleqfvDz-50" target="KJzKK7GFQL38OleqfvDz-51">
          <mxGeometry relative="1" as="geometry" />
        </mxCell>
        <mxCell id="KJzKK7GFQL38OleqfvDz-50" value="Kaç gün kiralayacaksınız?" style="shape=document;whiteSpace=wrap;html=1;boundedLbl=1;" vertex="1" parent="1">
          <mxGeometry x="520" y="670" width="120" height="80" as="geometry" />
        </mxCell>
        <mxCell id="KJzKK7GFQL38OleqfvDz-54" value="" style="edgeStyle=orthogonalEdgeStyle;rounded=0;orthogonalLoop=1;jettySize=auto;html=1;" edge="1" parent="1" source="KJzKK7GFQL38OleqfvDz-51" target="KJzKK7GFQL38OleqfvDz-53">
          <mxGeometry relative="1" as="geometry" />
        </mxCell>
        <mxCell id="KJzKK7GFQL38OleqfvDz-51" value="gun" style="shape=parallelogram;perimeter=parallelogramPerimeter;whiteSpace=wrap;html=1;fixedSize=1;" vertex="1" parent="1">
          <mxGeometry x="660" y="680" width="120" height="60" as="geometry" />
        </mxCell>
        <mxCell id="KJzKK7GFQL38OleqfvDz-56" value="" style="edgeStyle=orthogonalEdgeStyle;rounded=0;orthogonalLoop=1;jettySize=auto;html=1;" edge="1" parent="1" source="KJzKK7GFQL38OleqfvDz-53">
          <mxGeometry relative="1" as="geometry">
            <mxPoint x="960" y="710" as="targetPoint" />
          </mxGeometry>
        </mxCell>
        <mxCell id="KJzKK7GFQL38OleqfvDz-53" value="bedel = gun*300;" style="whiteSpace=wrap;html=1;" vertex="1" parent="1">
          <mxGeometry x="790" y="680" width="120" height="60" as="geometry" />
        </mxCell>
        <mxCell id="KJzKK7GFQL38OleqfvDz-57" value="Toplam Fyat: bedel" style="shape=document;whiteSpace=wrap;html=1;boundedLbl=1;" vertex="1" parent="1">
          <mxGeometry x="960" y="680" width="120" height="80" as="geometry" />
        </mxCell>
        <mxCell id="KJzKK7GFQL38OleqfvDz-60" value="" style="endArrow=none;html=1;rounded=0;exitX=0.5;exitY=0;exitDx=0;exitDy=0;" edge="1" parent="1" source="KJzKK7GFQL38OleqfvDz-57">
          <mxGeometry width="50" height="50" relative="1" as="geometry">
            <mxPoint x="630" y="530" as="sourcePoint" />
            <mxPoint x="860" y="560" as="targetPoint" />
            <Array as="points">
              <mxPoint x="1020" y="640" />
              <mxPoint x="860" y="640" />
            </Array>
          </mxGeometry>
        </mxCell>
        <mxCell id="KJzKK7GFQL38OleqfvDz-61" value="" style="endArrow=classic;html=1;rounded=0;entryX=0;entryY=0.5;entryDx=0;entryDy=0;" edge="1" parent="1" target="KJzKK7GFQL38OleqfvDz-16">
          <mxGeometry width="50" height="50" relative="1" as="geometry">
            <mxPoint x="120" y="710" as="sourcePoint" />
            <mxPoint x="170" y="720" as="targetPoint" />
            <Array as="points">
              <mxPoint x="120" y="830" />
            </Array>
          </mxGeometry>
        </mxCell>
        <mxCell id="KJzKK7GFQL38OleqfvDz-64" value="4" style="edgeLabel;html=1;align=center;verticalAlign=middle;resizable=0;points=[];" vertex="1" connectable="0" parent="KJzKK7GFQL38OleqfvDz-61">
          <mxGeometry x="0.6651" y="-1" relative="1" as="geometry">
            <mxPoint as="offset" />
          </mxGeometry>
        </mxCell>
        <mxCell id="KJzKK7GFQL38OleqfvDz-66" value="" style="edgeStyle=orthogonalEdgeStyle;rounded=0;orthogonalLoop=1;jettySize=auto;html=1;" edge="1" parent="1" source="KJzKK7GFQL38OleqfvDz-62" target="KJzKK7GFQL38OleqfvDz-65">
          <mxGeometry relative="1" as="geometry" />
        </mxCell>
        <mxCell id="KJzKK7GFQL38OleqfvDz-62" value="foreach(string i in arac){ Console.WriteLine(i); }" style="shape=parallelogram;perimeter=parallelogramPerimeter;whiteSpace=wrap;html=1;fixedSize=1;" vertex="1" parent="1">
          <mxGeometry x="350" y="800" width="160" height="60" as="geometry" />
        </mxCell>
        <mxCell id="KJzKK7GFQL38OleqfvDz-68" value="" style="edgeStyle=orthogonalEdgeStyle;rounded=0;orthogonalLoop=1;jettySize=auto;html=1;" edge="1" parent="1" source="KJzKK7GFQL38OleqfvDz-65" target="KJzKK7GFQL38OleqfvDz-67">
          <mxGeometry relative="1" as="geometry" />
        </mxCell>
        <mxCell id="KJzKK7GFQL38OleqfvDz-65" value="Aracın yeni kilometrresini giriniz." style="shape=document;whiteSpace=wrap;html=1;boundedLbl=1;" vertex="1" parent="1">
          <mxGeometry x="540" y="790" width="120" height="80" as="geometry" />
        </mxCell>
        <mxCell id="KJzKK7GFQL38OleqfvDz-67" value="km" style="shape=parallelogram;perimeter=parallelogramPerimeter;whiteSpace=wrap;html=1;fixedSize=1;" vertex="1" parent="1">
          <mxGeometry x="690" y="800" width="120" height="60" as="geometry" />
        </mxCell>
        <mxCell id="KJzKK7GFQL38OleqfvDz-70" value="" style="endArrow=none;html=1;rounded=0;exitX=1;exitY=0.5;exitDx=0;exitDy=0;" edge="1" parent="1" source="KJzKK7GFQL38OleqfvDz-67">
          <mxGeometry width="50" height="50" relative="1" as="geometry">
            <mxPoint x="860" y="860" as="sourcePoint" />
            <mxPoint x="1020" y="640" as="targetPoint" />
            <Array as="points">
              <mxPoint x="1240" y="830" />
              <mxPoint x="1240" y="640" />
            </Array>
          </mxGeometry>
        </mxCell>
        <mxCell id="KJzKK7GFQL38OleqfvDz-75" value="" style="edgeStyle=orthogonalEdgeStyle;rounded=0;orthogonalLoop=1;jettySize=auto;html=1;" edge="1" parent="1" source="KJzKK7GFQL38OleqfvDz-71" target="KJzKK7GFQL38OleqfvDz-74">
          <mxGeometry relative="1" as="geometry" />
        </mxCell>
        <mxCell id="KJzKK7GFQL38OleqfvDz-71" value="1)Araç arama&lt;div&gt;2)filtreleme&lt;/div&gt;&lt;div&gt;seçiniz...&lt;/div&gt;" style="shape=document;whiteSpace=wrap;html=1;boundedLbl=1;" vertex="1" parent="1">
          <mxGeometry x="210" y="910" width="120" height="80" as="geometry" />
        </mxCell>
        <mxCell id="KJzKK7GFQL38OleqfvDz-72" value="" style="endArrow=classic;html=1;rounded=0;entryX=0;entryY=0.5;entryDx=0;entryDy=0;" edge="1" parent="1" target="KJzKK7GFQL38OleqfvDz-71">
          <mxGeometry width="50" height="50" relative="1" as="geometry">
            <mxPoint x="120" y="830" as="sourcePoint" />
            <mxPoint x="210" y="900" as="targetPoint" />
            <Array as="points">
              <mxPoint x="120" y="950" />
            </Array>
          </mxGeometry>
        </mxCell>
        <mxCell id="KJzKK7GFQL38OleqfvDz-73" value="5" style="edgeLabel;html=1;align=center;verticalAlign=middle;resizable=0;points=[];" vertex="1" connectable="0" parent="KJzKK7GFQL38OleqfvDz-72">
          <mxGeometry x="0.7001" relative="1" as="geometry">
            <mxPoint as="offset" />
          </mxGeometry>
        </mxCell>
        <mxCell id="KJzKK7GFQL38OleqfvDz-77" value="" style="edgeStyle=orthogonalEdgeStyle;rounded=0;orthogonalLoop=1;jettySize=auto;html=1;" edge="1" parent="1" source="KJzKK7GFQL38OleqfvDz-74" target="KJzKK7GFQL38OleqfvDz-76">
          <mxGeometry relative="1" as="geometry" />
        </mxCell>
        <mxCell id="KJzKK7GFQL38OleqfvDz-74" value="karar" style="shape=parallelogram;perimeter=parallelogramPerimeter;whiteSpace=wrap;html=1;fixedSize=1;" vertex="1" parent="1">
          <mxGeometry x="340" y="920" width="120" height="60" as="geometry" />
        </mxCell>
        <mxCell id="KJzKK7GFQL38OleqfvDz-79" value="" style="edgeStyle=orthogonalEdgeStyle;rounded=0;orthogonalLoop=1;jettySize=auto;html=1;entryX=0.5;entryY=0;entryDx=0;entryDy=0;" edge="1" parent="1" source="KJzKK7GFQL38OleqfvDz-76" target="KJzKK7GFQL38OleqfvDz-80">
          <mxGeometry relative="1" as="geometry">
            <mxPoint x="530" y="1010" as="targetPoint" />
          </mxGeometry>
        </mxCell>
        <mxCell id="KJzKK7GFQL38OleqfvDz-81" value="1" style="edgeLabel;html=1;align=center;verticalAlign=middle;resizable=0;points=[];" vertex="1" connectable="0" parent="KJzKK7GFQL38OleqfvDz-79">
          <mxGeometry x="-0.2365" relative="1" as="geometry">
            <mxPoint as="offset" />
          </mxGeometry>
        </mxCell>
        <mxCell id="KJzKK7GFQL38OleqfvDz-87" value="" style="edgeStyle=orthogonalEdgeStyle;rounded=0;orthogonalLoop=1;jettySize=auto;html=1;" edge="1" parent="1" source="KJzKK7GFQL38OleqfvDz-76" target="KJzKK7GFQL38OleqfvDz-86">
          <mxGeometry relative="1" as="geometry" />
        </mxCell>
        <mxCell id="KJzKK7GFQL38OleqfvDz-88" value="2" style="edgeLabel;html=1;align=center;verticalAlign=middle;resizable=0;points=[];" vertex="1" connectable="0" parent="KJzKK7GFQL38OleqfvDz-87">
          <mxGeometry x="0.4797" relative="1" as="geometry">
            <mxPoint as="offset" />
          </mxGeometry>
        </mxCell>
        <mxCell id="KJzKK7GFQL38OleqfvDz-76" value="karar?" style="rhombus;whiteSpace=wrap;html=1;" vertex="1" parent="1">
          <mxGeometry x="490" y="910" width="80" height="80" as="geometry" />
        </mxCell>
        <mxCell id="KJzKK7GFQL38OleqfvDz-83" value="" style="edgeStyle=orthogonalEdgeStyle;rounded=0;orthogonalLoop=1;jettySize=auto;html=1;" edge="1" parent="1" source="KJzKK7GFQL38OleqfvDz-80">
          <mxGeometry relative="1" as="geometry">
            <mxPoint x="620" y="1070.0434782608695" as="targetPoint" />
          </mxGeometry>
        </mxCell>
        <mxCell id="KJzKK7GFQL38OleqfvDz-80" value="arac ismi girin(arac)" style="shape=parallelogram;perimeter=parallelogramPerimeter;whiteSpace=wrap;html=1;fixedSize=1;" vertex="1" parent="1">
          <mxGeometry x="470" y="1040" width="120" height="60" as="geometry" />
        </mxCell>
        <mxCell id="KJzKK7GFQL38OleqfvDz-84" value="arac" style="shape=document;whiteSpace=wrap;html=1;boundedLbl=1;" vertex="1" parent="1">
          <mxGeometry x="620" y="1040" width="120" height="80" as="geometry" />
        </mxCell>
        <mxCell id="KJzKK7GFQL38OleqfvDz-85" value="" style="endArrow=none;html=1;rounded=0;exitX=1;exitY=0.5;exitDx=0;exitDy=0;" edge="1" parent="1" source="KJzKK7GFQL38OleqfvDz-84">
          <mxGeometry width="50" height="50" relative="1" as="geometry">
            <mxPoint x="810" y="1080" as="sourcePoint" />
            <mxPoint x="1240" y="820" as="targetPoint" />
            <Array as="points">
              <mxPoint x="1240" y="1080" />
            </Array>
          </mxGeometry>
        </mxCell>
        <mxCell id="KJzKK7GFQL38OleqfvDz-90" value="" style="edgeStyle=orthogonalEdgeStyle;rounded=0;orthogonalLoop=1;jettySize=auto;html=1;" edge="1" parent="1" source="KJzKK7GFQL38OleqfvDz-86" target="KJzKK7GFQL38OleqfvDz-89">
          <mxGeometry relative="1" as="geometry" />
        </mxCell>
        <mxCell id="KJzKK7GFQL38OleqfvDz-86" value="km1, km2" style="shape=parallelogram;perimeter=parallelogramPerimeter;whiteSpace=wrap;html=1;fixedSize=1;" vertex="1" parent="1">
          <mxGeometry x="590" y="920" width="120" height="60" as="geometry" />
        </mxCell>
        <mxCell id="KJzKK7GFQL38OleqfvDz-92" value="" style="edgeStyle=orthogonalEdgeStyle;rounded=0;orthogonalLoop=1;jettySize=auto;html=1;" edge="1" parent="1" source="KJzKK7GFQL38OleqfvDz-89" target="KJzKK7GFQL38OleqfvDz-91">
          <mxGeometry relative="1" as="geometry" />
        </mxCell>
        <mxCell id="KJzKK7GFQL38OleqfvDz-89" value="km[i]&amp;gt;km1&amp;amp;&amp;amp;km[i]&amp;lt;km2" style="rhombus;whiteSpace=wrap;html=1;" vertex="1" parent="1">
          <mxGeometry x="720" y="895" width="130" height="110" as="geometry" />
        </mxCell>
        <mxCell id="KJzKK7GFQL38OleqfvDz-91" value="Arac[i]" style="shape=document;whiteSpace=wrap;html=1;boundedLbl=1;" vertex="1" parent="1">
          <mxGeometry x="880" y="910" width="120" height="80" as="geometry" />
        </mxCell>
        <mxCell id="KJzKK7GFQL38OleqfvDz-93" value="" style="endArrow=none;html=1;rounded=0;exitX=1;exitY=0.405;exitDx=0;exitDy=0;exitPerimeter=0;" edge="1" parent="1" source="KJzKK7GFQL38OleqfvDz-91">
          <mxGeometry width="50" height="50" relative="1" as="geometry">
            <mxPoint x="1050" y="960" as="sourcePoint" />
            <mxPoint x="1240" y="942" as="targetPoint" />
          </mxGeometry>
        </mxCell>
      </root>
    </mxGraphModel>
  </diagram>
</mxfile>
